<?xml version="1.0" encoding="UTF-8"?>
<svg xmlns="http://www.w3.org/2000/svg" width="453" height="103">
   <defs>
      <style type="text/css">
    @namespace "http://www.w3.org/2000/svg";
    .line                 {fill: none; stroke: #332900; stroke-width: 1;}
    .bold-line            {stroke: #141000; shape-rendering: crispEdges; stroke-width: 2;}
    .thin-line            {stroke: #1F1800; shape-rendering: crispEdges}
    .filled               {fill: #332900; stroke: none;}
    text.terminal         {font-family: Verdana, Sans-serif;
                            font-size: 12px;
                            fill: #141000;
                            font-weight: bold;
                          }
    text.nonterminal      {font-family: Verdana, Sans-serif;
                            font-size: 12px;
                            fill: #1A1400;
                            font-weight: normal;
                          }
    text.regexp           {font-family: Verdana, Sans-serif;
                            font-size: 12px;
                            fill: #1F1800;
                            font-weight: normal;
                          }
    rect, circle, polygon {fill: #332900; stroke: #332900;}
    rect.terminal         {fill: #FFDB4D; stroke: #332900; stroke-width: 1;}
    rect.nonterminal      {fill: #FFEC9E; stroke: #332900; stroke-width: 1;}
    rect.text             {fill: none; stroke: none;}
    polygon.regexp        {fill: #FFF4C7; stroke: #332900; stroke-width: 1;}
  </style>
   </defs>
   <polygon points="9 51 1 47 1 55"/>
   <polygon points="17 51 9 47 9 55"/>
   <a xmlns:xlink="http://www.w3.org/1999/xlink"
      xlink:href="#ModulePrologue"
      xlink:title="ModulePrologue">
      <rect x="51" y="69" width="122" height="32"/>
      <rect x="49" y="67" width="122" height="32" class="nonterminal"/>
      <text class="nonterminal" x="59" y="87">ModulePrologue</text>
   </a>
   <a xmlns:xlink="http://www.w3.org/1999/xlink"
      xlink:href="#TopLevelItem"
      xlink:title="TopLevelItem">
      <rect x="233" y="3" width="106" height="32"/>
      <rect x="231" y="1" width="106" height="32" class="nonterminal"/>
      <text class="nonterminal" x="241" y="21">TopLevelItem</text>
   </a>
   <rect x="379" y="37" width="46" height="32" rx="10"/>
   <rect x="377"
         y="35"
         width="46"
         height="32"
         class="terminal"
         rx="10"/>
   <text class="terminal" x="387" y="55">EOF</text>
   <path class="line"
         d="m17 51 h2 m20 0 h10 m0 0 h132 m-162 0 h20 m142 0 h20 m-182 0 q10 0 10 10 m162 0 q0 -10 10 -10 m-172 10 v12 m162 0 v-12 m-162 12 q0 10 10 10 m142 0 q10 0 10 -10 m-152 10 h10 m122 0 h10 m40 -32 h10 m0 0 h116 m-146 0 l20 0 m-1 0 q-9 0 -9 -10 l0 -14 q0 -10 10 -10 m126 34 l20 0 m-20 0 q10 0 10 -10 l0 -14 q0 -10 -10 -10 m-126 0 h10 m106 0 h10 m20 34 h10 m46 0 h10 m3 0 h-3"/>
   <polygon points="443 51 451 47 451 55"/>
   <polygon points="443 51 435 47 435 55"/>
</svg>
