<?xml version="1.0" encoding="UTF-8"?>
<svg xmlns="http://www.w3.org/2000/svg" width="257" height="345">
   <defs>
      <style type="text/css">
    @namespace "http://www.w3.org/2000/svg";
    .line                 {fill: none; stroke: #332900; stroke-width: 1;}
    .bold-line            {stroke: #141000; shape-rendering: crispEdges; stroke-width: 2;}
    .thin-line            {stroke: #1F1800; shape-rendering: crispEdges}
    .filled               {fill: #332900; stroke: none;}
    text.terminal         {font-family: Verdana, Sans-serif;
                            font-size: 12px;
                            fill: #141000;
                            font-weight: bold;
                          }
    text.nonterminal      {font-family: Verdana, Sans-serif;
                            font-size: 12px;
                            fill: #1A1400;
                            font-weight: normal;
                          }
    text.regexp           {font-family: Verdana, Sans-serif;
                            font-size: 12px;
                            fill: #1F1800;
                            font-weight: normal;
                          }
    rect, circle, polygon {fill: #332900; stroke: #332900;}
    rect.terminal         {fill: #FFDB4D; stroke: #332900; stroke-width: 1;}
    rect.nonterminal      {fill: #FFEC9E; stroke: #332900; stroke-width: 1;}
    rect.text             {fill: none; stroke: none;}
    polygon.regexp        {fill: #FFF4C7; stroke: #332900; stroke-width: 1;}
  </style>
   </defs>
   <polygon points="9 17 1 13 1 21"/>
   <polygon points="17 17 9 13 9 21"/>
   <rect x="51" y="3" width="28" height="32" rx="10"/>
   <rect x="49"
         y="1"
         width="28"
         height="32"
         class="terminal"
         rx="10"/>
   <text class="terminal" x="59" y="21">_</text>
   <a xmlns:xlink="http://www.w3.org/1999/xlink"
      xlink:href="#LiteralPattern"
      xlink:title="LiteralPattern">
      <rect x="51" y="47" width="106" height="32"/>
      <rect x="49" y="45" width="106" height="32" class="nonterminal"/>
      <text class="nonterminal" x="59" y="65">LiteralPattern</text>
   </a>
   <a xmlns:xlink="http://www.w3.org/1999/xlink"
      xlink:href="#NamePattern"
      xlink:title="NamePattern">
      <rect x="51" y="91" width="104" height="32"/>
      <rect x="49" y="89" width="104" height="32" class="nonterminal"/>
      <text class="nonterminal" x="59" y="109">NamePattern</text>
   </a>
   <a xmlns:xlink="http://www.w3.org/1999/xlink"
      xlink:href="#TuplePattern"
      xlink:title="TuplePattern">
      <rect x="51" y="135" width="100" height="32"/>
      <rect x="49" y="133" width="100" height="32" class="nonterminal"/>
      <text class="nonterminal" x="59" y="153">TuplePattern</text>
   </a>
   <a xmlns:xlink="http://www.w3.org/1999/xlink"
      xlink:href="#ListPattern"
      xlink:title="ListPattern">
      <rect x="51" y="179" width="88" height="32"/>
      <rect x="49" y="177" width="88" height="32" class="nonterminal"/>
      <text class="nonterminal" x="59" y="197">ListPattern</text>
   </a>
   <a xmlns:xlink="http://www.w3.org/1999/xlink"
      xlink:href="#RecordPattern"
      xlink:title="RecordPattern">
      <rect x="51" y="223" width="110" height="32"/>
      <rect x="49" y="221" width="110" height="32" class="nonterminal"/>
      <text class="nonterminal" x="59" y="241">RecordPattern</text>
   </a>
   <a xmlns:xlink="http://www.w3.org/1999/xlink"
      xlink:href="#VariantPattern"
      xlink:title="VariantPattern">
      <rect x="51" y="267" width="112" height="32"/>
      <rect x="49" y="265" width="112" height="32" class="nonterminal"/>
      <text class="nonterminal" x="59" y="285">VariantPattern</text>
   </a>
   <rect x="51" y="311" width="26" height="32" rx="10"/>
   <rect x="49"
         y="309"
         width="26"
         height="32"
         class="terminal"
         rx="10"/>
   <text class="terminal" x="59" y="329">(</text>
   <a xmlns:xlink="http://www.w3.org/1999/xlink"
      xlink:href="#Pattern"
      xlink:title="Pattern">
      <rect x="97" y="311" width="66" height="32"/>
      <rect x="95" y="309" width="66" height="32" class="nonterminal"/>
      <text class="nonterminal" x="105" y="329">Pattern</text>
   </a>
   <rect x="183" y="311" width="26" height="32" rx="10"/>
   <rect x="181"
         y="309"
         width="26"
         height="32"
         class="terminal"
         rx="10"/>
   <text class="terminal" x="191" y="329">)</text>
   <path class="line"
         d="m17 17 h2 m20 0 h10 m28 0 h10 m0 0 h130 m-198 0 h20 m178 0 h20 m-218 0 q10 0 10 10 m198 0 q0 -10 10 -10 m-208 10 v24 m198 0 v-24 m-198 24 q0 10 10 10 m178 0 q10 0 10 -10 m-188 10 h10 m106 0 h10 m0 0 h52 m-188 -10 v20 m198 0 v-20 m-198 20 v24 m198 0 v-24 m-198 24 q0 10 10 10 m178 0 q10 0 10 -10 m-188 10 h10 m104 0 h10 m0 0 h54 m-188 -10 v20 m198 0 v-20 m-198 20 v24 m198 0 v-24 m-198 24 q0 10 10 10 m178 0 q10 0 10 -10 m-188 10 h10 m100 0 h10 m0 0 h58 m-188 -10 v20 m198 0 v-20 m-198 20 v24 m198 0 v-24 m-198 24 q0 10 10 10 m178 0 q10 0 10 -10 m-188 10 h10 m88 0 h10 m0 0 h70 m-188 -10 v20 m198 0 v-20 m-198 20 v24 m198 0 v-24 m-198 24 q0 10 10 10 m178 0 q10 0 10 -10 m-188 10 h10 m110 0 h10 m0 0 h48 m-188 -10 v20 m198 0 v-20 m-198 20 v24 m198 0 v-24 m-198 24 q0 10 10 10 m178 0 q10 0 10 -10 m-188 10 h10 m112 0 h10 m0 0 h46 m-188 -10 v20 m198 0 v-20 m-198 20 v24 m198 0 v-24 m-198 24 q0 10 10 10 m178 0 q10 0 10 -10 m-188 10 h10 m26 0 h10 m0 0 h10 m66 0 h10 m0 0 h10 m26 0 h10 m23 -308 h-3"/>
   <polygon points="247 17 255 13 255 21"/>
   <polygon points="247 17 239 13 239 21"/>
</svg>
