<?xml version="1.0" encoding="UTF-8"?>
<svg xmlns="http://www.w3.org/2000/svg" width="351" height="115">
   <defs>
      <style type="text/css">
    @namespace "http://www.w3.org/2000/svg";
    .line                 {fill: none; stroke: #332900; stroke-width: 1;}
    .bold-line            {stroke: #141000; shape-rendering: crispEdges; stroke-width: 2;}
    .thin-line            {stroke: #1F1800; shape-rendering: crispEdges}
    .filled               {fill: #332900; stroke: none;}
    text.terminal         {font-family: Verdana, Sans-serif;
                            font-size: 12px;
                            fill: #141000;
                            font-weight: bold;
                          }
    text.nonterminal      {font-family: Verdana, Sans-serif;
                            font-size: 12px;
                            fill: #1A1400;
                            font-weight: normal;
                          }
    text.regexp           {font-family: Verdana, Sans-serif;
                            font-size: 12px;
                            fill: #1F1800;
                            font-weight: normal;
                          }
    rect, circle, polygon {fill: #332900; stroke: #332900;}
    rect.terminal         {fill: #FFDB4D; stroke: #332900; stroke-width: 1;}
    rect.nonterminal      {fill: #FFEC9E; stroke: #332900; stroke-width: 1;}
    rect.text             {fill: none; stroke: none;}
    polygon.regexp        {fill: #FFF4C7; stroke: #332900; stroke-width: 1;}
  </style>
   </defs>
   <polygon points="9 95 1 91 1 99"/>
   <polygon points="17 95 9 91 9 99"/>
   <rect x="31" y="81" width="36" height="32" rx="10"/>
   <rect x="29"
         y="79"
         width="36"
         height="32"
         class="terminal"
         rx="10"/>
   <text class="terminal" x="39" y="99">0b</text>
   <a xmlns:xlink="http://www.w3.org/1999/xlink"
      xlink:href="#BinaryDigit"
      xlink:title="BinaryDigit">
      <rect x="87" y="81" width="88" height="32"/>
      <rect x="85" y="79" width="88" height="32" class="nonterminal"/>
      <text class="nonterminal" x="95" y="99">BinaryDigit</text>
   </a>
   <a xmlns:xlink="http://www.w3.org/1999/xlink"
      xlink:href="#BinaryDigit"
      xlink:title="BinaryDigit">
      <rect x="215" y="47" width="88" height="32"/>
      <rect x="213" y="45" width="88" height="32" class="nonterminal"/>
      <text class="nonterminal" x="223" y="65">BinaryDigit</text>
   </a>
   <rect x="215" y="3" width="28" height="32" rx="10"/>
   <rect x="213"
         y="1"
         width="28"
         height="32"
         class="terminal"
         rx="10"/>
   <text class="terminal" x="223" y="21">_</text>
   <path class="line"
         d="m17 95 h2 m0 0 h10 m36 0 h10 m0 0 h10 m88 0 h10 m20 0 h10 m0 0 h98 m-128 0 l20 0 m-1 0 q-9 0 -9 -10 l0 -14 q0 -10 10 -10 m108 34 l20 0 m-20 0 q10 0 10 -10 l0 -14 q0 -10 -10 -10 m-108 0 h10 m88 0 h10 m-118 10 l0 -44 q0 -10 10 -10 m118 54 l0 -44 q0 -10 -10 -10 m-108 0 h10 m28 0 h10 m0 0 h60 m23 78 h-3"/>
   <polygon points="341 95 349 91 349 99"/>
   <polygon points="341 95 333 91 333 99"/>
</svg>
