<?xml version="1.0" encoding="UTF-8"?>
<svg xmlns="http://www.w3.org/2000/svg" width="551" height="389">
   <defs>
      <style type="text/css">
    @namespace "http://www.w3.org/2000/svg";
    .line                 {fill: none; stroke: #332900; stroke-width: 1;}
    .bold-line            {stroke: #141000; shape-rendering: crispEdges; stroke-width: 2;}
    .thin-line            {stroke: #1F1800; shape-rendering: crispEdges}
    .filled               {fill: #332900; stroke: none;}
    text.terminal         {font-family: Verdana, Sans-serif;
                            font-size: 12px;
                            fill: #141000;
                            font-weight: bold;
                          }
    text.nonterminal      {font-family: Verdana, Sans-serif;
                            font-size: 12px;
                            fill: #1A1400;
                            font-weight: normal;
                          }
    text.regexp           {font-family: Verdana, Sans-serif;
                            font-size: 12px;
                            fill: #1F1800;
                            font-weight: normal;
                          }
    rect, circle, polygon {fill: #332900; stroke: #332900;}
    rect.terminal         {fill: #FFDB4D; stroke: #332900; stroke-width: 1;}
    rect.nonterminal      {fill: #FFEC9E; stroke: #332900; stroke-width: 1;}
    rect.text             {fill: none; stroke: none;}
    polygon.regexp        {fill: #FFF4C7; stroke: #332900; stroke-width: 1;}
  </style>
   </defs>
   <polygon points="9 17 1 13 1 21"/>
   <polygon points="17 17 9 13 9 21"/>
   <rect x="31" y="3" width="36" height="32" rx="10"/>
   <rect x="29"
         y="1"
         width="36"
         height="32"
         class="terminal"
         rx="10"/>
   <text class="terminal" x="39" y="21">\\</text>
   <rect x="107" y="3" width="26" height="32" rx="10"/>
   <rect x="105"
         y="1"
         width="26"
         height="32"
         class="terminal"
         rx="10"/>
   <text class="terminal" x="115" y="21">"</text>
   <rect x="107" y="47" width="36" height="32" rx="10"/>
   <rect x="105"
         y="45"
         width="36"
         height="32"
         class="terminal"
         rx="10"/>
   <text class="terminal" x="115" y="65">\\</text>
   <rect x="107" y="91" width="28" height="32" rx="10"/>
   <rect x="105"
         y="89"
         width="28"
         height="32"
         class="terminal"
         rx="10"/>
   <text class="terminal" x="115" y="109">/</text>
   <rect x="107" y="135" width="28" height="32" rx="10"/>
   <rect x="105"
         y="133"
         width="28"
         height="32"
         class="terminal"
         rx="10"/>
   <text class="terminal" x="115" y="153">b</text>
   <rect x="107" y="179" width="24" height="32" rx="10"/>
   <rect x="105"
         y="177"
         width="24"
         height="32"
         class="terminal"
         rx="10"/>
   <text class="terminal" x="115" y="197">f</text>
   <rect x="107" y="223" width="28" height="32" rx="10"/>
   <rect x="105"
         y="221"
         width="28"
         height="32"
         class="terminal"
         rx="10"/>
   <text class="terminal" x="115" y="241">n</text>
   <rect x="107" y="267" width="26" height="32" rx="10"/>
   <rect x="105"
         y="265"
         width="26"
         height="32"
         class="terminal"
         rx="10"/>
   <text class="terminal" x="115" y="285">r</text>
   <rect x="107" y="311" width="24" height="32" rx="10"/>
   <rect x="105"
         y="309"
         width="24"
         height="32"
         class="terminal"
         rx="10"/>
   <text class="terminal" x="115" y="329">t</text>
   <rect x="107" y="355" width="28" height="32" rx="10"/>
   <rect x="105"
         y="353"
         width="28"
         height="32"
         class="terminal"
         rx="10"/>
   <text class="terminal" x="115" y="373">u</text>
   <a xmlns:xlink="http://www.w3.org/1999/xlink"
      xlink:href="#HexDigit"
      xlink:title="HexDigit">
      <rect x="155" y="355" width="72" height="32"/>
      <rect x="153" y="353" width="72" height="32" class="nonterminal"/>
      <text class="nonterminal" x="163" y="373">HexDigit</text>
   </a>
   <a xmlns:xlink="http://www.w3.org/1999/xlink"
      xlink:href="#HexDigit"
      xlink:title="HexDigit">
      <rect x="247" y="355" width="72" height="32"/>
      <rect x="245" y="353" width="72" height="32" class="nonterminal"/>
      <text class="nonterminal" x="255" y="373">HexDigit</text>
   </a>
   <a xmlns:xlink="http://www.w3.org/1999/xlink"
      xlink:href="#HexDigit"
      xlink:title="HexDigit">
      <rect x="339" y="355" width="72" height="32"/>
      <rect x="337" y="353" width="72" height="32" class="nonterminal"/>
      <text class="nonterminal" x="347" y="373">HexDigit</text>
   </a>
   <a xmlns:xlink="http://www.w3.org/1999/xlink"
      xlink:href="#HexDigit"
      xlink:title="HexDigit">
      <rect x="431" y="355" width="72" height="32"/>
      <rect x="429" y="353" width="72" height="32" class="nonterminal"/>
      <text class="nonterminal" x="439" y="373">HexDigit</text>
   </a>
   <path class="line"
         d="m17 17 h2 m0 0 h10 m36 0 h10 m20 0 h10 m26 0 h10 m0 0 h370 m-436 0 h20 m416 0 h20 m-456 0 q10 0 10 10 m436 0 q0 -10 10 -10 m-446 10 v24 m436 0 v-24 m-436 24 q0 10 10 10 m416 0 q10 0 10 -10 m-426 10 h10 m36 0 h10 m0 0 h360 m-426 -10 v20 m436 0 v-20 m-436 20 v24 m436 0 v-24 m-436 24 q0 10 10 10 m416 0 q10 0 10 -10 m-426 10 h10 m28 0 h10 m0 0 h368 m-426 -10 v20 m436 0 v-20 m-436 20 v24 m436 0 v-24 m-436 24 q0 10 10 10 m416 0 q10 0 10 -10 m-426 10 h10 m28 0 h10 m0 0 h368 m-426 -10 v20 m436 0 v-20 m-436 20 v24 m436 0 v-24 m-436 24 q0 10 10 10 m416 0 q10 0 10 -10 m-426 10 h10 m24 0 h10 m0 0 h372 m-426 -10 v20 m436 0 v-20 m-436 20 v24 m436 0 v-24 m-436 24 q0 10 10 10 m416 0 q10 0 10 -10 m-426 10 h10 m28 0 h10 m0 0 h368 m-426 -10 v20 m436 0 v-20 m-436 20 v24 m436 0 v-24 m-436 24 q0 10 10 10 m416 0 q10 0 10 -10 m-426 10 h10 m26 0 h10 m0 0 h370 m-426 -10 v20 m436 0 v-20 m-436 20 v24 m436 0 v-24 m-436 24 q0 10 10 10 m416 0 q10 0 10 -10 m-426 10 h10 m24 0 h10 m0 0 h372 m-426 -10 v20 m436 0 v-20 m-436 20 v24 m436 0 v-24 m-436 24 q0 10 10 10 m416 0 q10 0 10 -10 m-426 10 h10 m28 0 h10 m0 0 h10 m72 0 h10 m0 0 h10 m72 0 h10 m0 0 h10 m72 0 h10 m0 0 h10 m72 0 h10 m23 -352 h-3"/>
   <polygon points="541 17 549 13 549 21"/>
   <polygon points="541 17 533 13 533 21"/>
</svg>
