<?xml version="1.0" encoding="UTF-8"?>
<svg xmlns="http://www.w3.org/2000/svg" width="811" height="103">
   <defs>
      <style type="text/css">
    @namespace "http://www.w3.org/2000/svg";
    .line                 {fill: none; stroke: #332900; stroke-width: 1;}
    .bold-line            {stroke: #141000; shape-rendering: crispEdges; stroke-width: 2;}
    .thin-line            {stroke: #1F1800; shape-rendering: crispEdges}
    .filled               {fill: #332900; stroke: none;}
    text.terminal         {font-family: Verdana, Sans-serif;
                            font-size: 12px;
                            fill: #141000;
                            font-weight: bold;
                          }
    text.nonterminal      {font-family: Verdana, Sans-serif;
                            font-size: 12px;
                            fill: #1A1400;
                            font-weight: normal;
                          }
    text.regexp           {font-family: Verdana, Sans-serif;
                            font-size: 12px;
                            fill: #1F1800;
                            font-weight: normal;
                          }
    rect, circle, polygon {fill: #332900; stroke: #332900;}
    rect.terminal         {fill: #FFDB4D; stroke: #332900; stroke-width: 1;}
    rect.nonterminal      {fill: #FFEC9E; stroke: #332900; stroke-width: 1;}
    rect.text             {fill: none; stroke: none;}
    polygon.regexp        {fill: #FFF4C7; stroke: #332900; stroke-width: 1;}
  </style>
   </defs>
   <polygon points="9 51 1 47 1 55"/>
   <polygon points="17 51 9 47 9 55"/>
   <rect x="31" y="37" width="34" height="32" rx="10"/>
   <rect x="29"
         y="35"
         width="34"
         height="32"
         class="terminal"
         rx="10"/>
   <text class="terminal" x="39" y="55">fn</text>
   <a xmlns:xlink="http://www.w3.org/1999/xlink"
      xlink:href="#Identifier"
      xlink:title="Identifier">
      <rect x="85" y="37" width="78" height="32"/>
      <rect x="83" y="35" width="78" height="32" class="nonterminal"/>
      <text class="nonterminal" x="93" y="55">Identifier</text>
   </a>
   <a xmlns:xlink="http://www.w3.org/1999/xlink"
      xlink:href="#ParamList"
      xlink:title="ParamList">
      <rect x="183" y="37" width="82" height="32"/>
      <rect x="181" y="35" width="82" height="32" class="nonterminal"/>
      <text class="nonterminal" x="191" y="55">ParamList</text>
   </a>
   <a xmlns:xlink="http://www.w3.org/1999/xlink"
      xlink:href="#ReturnType"
      xlink:title="ReturnType">
      <rect x="305" y="69" width="92" height="32"/>
      <rect x="303" y="67" width="92" height="32" class="nonterminal"/>
      <text class="nonterminal" x="313" y="87">ReturnType</text>
   </a>
   <rect x="457" y="69" width="52" height="32" rx="10"/>
   <rect x="455"
         y="67"
         width="52"
         height="32"
         class="terminal"
         rx="10"/>
   <text class="terminal" x="465" y="87">from</text>
   <a xmlns:xlink="http://www.w3.org/1999/xlink"
      xlink:href="#StringLiteral"
      xlink:title="StringLiteral">
      <rect x="529" y="69" width="96" height="32"/>
      <rect x="527" y="67" width="96" height="32" class="nonterminal"/>
      <text class="nonterminal" x="537" y="87">StringLiteral</text>
   </a>
   <a xmlns:xlink="http://www.w3.org/1999/xlink"
      xlink:href="#NEWLINE"
      xlink:title="NEWLINE">
      <rect x="685" y="3" width="78" height="32"/>
      <rect x="683" y="1" width="78" height="32" class="nonterminal"/>
      <text class="nonterminal" x="693" y="21">NEWLINE</text>
   </a>
   <path class="line"
         d="m17 51 h2 m0 0 h10 m34 0 h10 m0 0 h10 m78 0 h10 m0 0 h10 m82 0 h10 m20 0 h10 m0 0 h102 m-132 0 h20 m112 0 h20 m-152 0 q10 0 10 10 m132 0 q0 -10 10 -10 m-142 10 v12 m132 0 v-12 m-132 12 q0 10 10 10 m112 0 q10 0 10 -10 m-122 10 h10 m92 0 h10 m40 -32 h10 m0 0 h178 m-208 0 h20 m188 0 h20 m-228 0 q10 0 10 10 m208 0 q0 -10 10 -10 m-218 10 v12 m208 0 v-12 m-208 12 q0 10 10 10 m188 0 q10 0 10 -10 m-198 10 h10 m52 0 h10 m0 0 h10 m96 0 h10 m40 -32 h10 m0 0 h88 m-118 0 l20 0 m-1 0 q-9 0 -9 -10 l0 -14 q0 -10 10 -10 m98 34 l20 0 m-20 0 q10 0 10 -10 l0 -14 q0 -10 -10 -10 m-98 0 h10 m78 0 h10 m23 34 h-3"/>
   <polygon points="801 51 809 47 809 55"/>
   <polygon points="801 51 793 47 793 55"/>
</svg>
