<?xml version="1.0" encoding="UTF-8"?>
<svg xmlns="http://www.w3.org/2000/svg" width="509" height="37">
   <defs>
      <style type="text/css">
    @namespace "http://www.w3.org/2000/svg";
    .line                 {fill: none; stroke: #332900; stroke-width: 1;}
    .bold-line            {stroke: #141000; shape-rendering: crispEdges; stroke-width: 2;}
    .thin-line            {stroke: #1F1800; shape-rendering: crispEdges}
    .filled               {fill: #332900; stroke: none;}
    text.terminal         {font-family: Verdana, Sans-serif;
                            font-size: 12px;
                            fill: #141000;
                            font-weight: bold;
                          }
    text.nonterminal      {font-family: Verdana, Sans-serif;
                            font-size: 12px;
                            fill: #1A1400;
                            font-weight: normal;
                          }
    text.regexp           {font-family: Verdana, Sans-serif;
                            font-size: 12px;
                            fill: #1F1800;
                            font-weight: normal;
                          }
    rect, circle, polygon {fill: #332900; stroke: #332900;}
    rect.terminal         {fill: #FFDB4D; stroke: #332900; stroke-width: 1;}
    rect.nonterminal      {fill: #FFEC9E; stroke: #332900; stroke-width: 1;}
    rect.text             {fill: none; stroke: none;}
    polygon.regexp        {fill: #FFF4C7; stroke: #332900; stroke-width: 1;}
  </style>
   </defs>
   <polygon points="9 17 1 13 1 21"/>
   <polygon points="17 17 9 13 9 21"/>
   <rect x="31" y="3" width="38" height="32" rx="10"/>
   <rect x="29"
         y="1"
         width="38"
         height="32"
         class="terminal"
         rx="10"/>
   <text class="terminal" x="39" y="21">for</text>
   <a xmlns:xlink="http://www.w3.org/1999/xlink"
      xlink:href="#BindingPattern"
      xlink:title="BindingPattern">
      <rect x="89" y="3" width="114" height="32"/>
      <rect x="87" y="1" width="114" height="32" class="nonterminal"/>
      <text class="nonterminal" x="97" y="21">BindingPattern</text>
   </a>
   <rect x="223" y="3" width="32" height="32" rx="10"/>
   <rect x="221"
         y="1"
         width="32"
         height="32"
         class="terminal"
         rx="10"/>
   <text class="terminal" x="231" y="21">in</text>
   <a xmlns:xlink="http://www.w3.org/1999/xlink"
      xlink:href="#Expression"
      xlink:title="Expression">
      <rect x="275" y="3" width="90" height="32"/>
      <rect x="273" y="1" width="90" height="32" class="nonterminal"/>
      <text class="nonterminal" x="283" y="21">Expression</text>
   </a>
   <rect x="385" y="3" width="24" height="32" rx="10"/>
   <rect x="383"
         y="1"
         width="24"
         height="32"
         class="terminal"
         rx="10"/>
   <text class="terminal" x="393" y="21">:</text>
   <a xmlns:xlink="http://www.w3.org/1999/xlink"
      xlink:href="#Block"
      xlink:title="Block">
      <rect x="429" y="3" width="52" height="32"/>
      <rect x="427" y="1" width="52" height="32" class="nonterminal"/>
      <text class="nonterminal" x="437" y="21">Block</text>
   </a>
   <path class="line"
         d="m17 17 h2 m0 0 h10 m38 0 h10 m0 0 h10 m114 0 h10 m0 0 h10 m32 0 h10 m0 0 h10 m90 0 h10 m0 0 h10 m24 0 h10 m0 0 h10 m52 0 h10 m3 0 h-3"/>
   <polygon points="499 17 507 13 507 21"/>
   <polygon points="499 17 491 13 491 21"/>
</svg>
