<?xml version="1.0" encoding="UTF-8"?>
<svg xmlns="http://www.w3.org/2000/svg" width="865" height="69">
   <defs>
      <style type="text/css">
    @namespace "http://www.w3.org/2000/svg";
    .line                 {fill: none; stroke: #332900; stroke-width: 1;}
    .bold-line            {stroke: #141000; shape-rendering: crispEdges; stroke-width: 2;}
    .thin-line            {stroke: #1F1800; shape-rendering: crispEdges}
    .filled               {fill: #332900; stroke: none;}
    text.terminal         {font-family: Verdana, Sans-serif;
                            font-size: 12px;
                            fill: #141000;
                            font-weight: bold;
                          }
    text.nonterminal      {font-family: Verdana, Sans-serif;
                            font-size: 12px;
                            fill: #1A1400;
                            font-weight: normal;
                          }
    text.regexp           {font-family: Verdana, Sans-serif;
                            font-size: 12px;
                            fill: #1F1800;
                            font-weight: normal;
                          }
    rect, circle, polygon {fill: #332900; stroke: #332900;}
    rect.terminal         {fill: #FFDB4D; stroke: #332900; stroke-width: 1;}
    rect.nonterminal      {fill: #FFEC9E; stroke: #332900; stroke-width: 1;}
    rect.text             {fill: none; stroke: none;}
    polygon.regexp        {fill: #FFF4C7; stroke: #332900; stroke-width: 1;}
  </style>
   </defs>
   <polygon points="9 17 1 13 1 21"/>
   <polygon points="17 17 9 13 9 21"/>
   <rect x="31" y="3" width="34" height="32" rx="10"/>
   <rect x="29"
         y="1"
         width="34"
         height="32"
         class="terminal"
         rx="10"/>
   <text class="terminal" x="39" y="21">fn</text>
   <a xmlns:xlink="http://www.w3.org/1999/xlink"
      xlink:href="#Identifier"
      xlink:title="Identifier">
      <rect x="85" y="3" width="78" height="32"/>
      <rect x="83" y="1" width="78" height="32" class="nonterminal"/>
      <text class="nonterminal" x="93" y="21">Identifier</text>
   </a>
   <a xmlns:xlink="http://www.w3.org/1999/xlink"
      xlink:href="#TypeParams"
      xlink:title="TypeParams">
      <rect x="203" y="35" width="98" height="32"/>
      <rect x="201" y="33" width="98" height="32" class="nonterminal"/>
      <text class="nonterminal" x="211" y="53">TypeParams</text>
   </a>
   <a xmlns:xlink="http://www.w3.org/1999/xlink"
      xlink:href="#ParamList"
      xlink:title="ParamList">
      <rect x="341" y="3" width="82" height="32"/>
      <rect x="339" y="1" width="82" height="32" class="nonterminal"/>
      <text class="nonterminal" x="349" y="21">ParamList</text>
   </a>
   <a xmlns:xlink="http://www.w3.org/1999/xlink"
      xlink:href="#ReturnType"
      xlink:title="ReturnType">
      <rect x="463" y="35" width="92" height="32"/>
      <rect x="461" y="33" width="92" height="32" class="nonterminal"/>
      <text class="nonterminal" x="471" y="53">ReturnType</text>
   </a>
   <a xmlns:xlink="http://www.w3.org/1999/xlink"
      xlink:href="#EffectSpec"
      xlink:title="EffectSpec">
      <rect x="615" y="35" width="86" height="32"/>
      <rect x="613" y="33" width="86" height="32" class="nonterminal"/>
      <text class="nonterminal" x="623" y="53">EffectSpec</text>
   </a>
   <a xmlns:xlink="http://www.w3.org/1999/xlink"
      xlink:href="#BlockOrExpr"
      xlink:title="BlockOrExpr">
      <rect x="741" y="3" width="96" height="32"/>
      <rect x="739" y="1" width="96" height="32" class="nonterminal"/>
      <text class="nonterminal" x="749" y="21">BlockOrExpr</text>
   </a>
   <path class="line"
         d="m17 17 h2 m0 0 h10 m34 0 h10 m0 0 h10 m78 0 h10 m20 0 h10 m0 0 h108 m-138 0 h20 m118 0 h20 m-158 0 q10 0 10 10 m138 0 q0 -10 10 -10 m-148 10 v12 m138 0 v-12 m-138 12 q0 10 10 10 m118 0 q10 0 10 -10 m-128 10 h10 m98 0 h10 m20 -32 h10 m82 0 h10 m20 0 h10 m0 0 h102 m-132 0 h20 m112 0 h20 m-152 0 q10 0 10 10 m132 0 q0 -10 10 -10 m-142 10 v12 m132 0 v-12 m-132 12 q0 10 10 10 m112 0 q10 0 10 -10 m-122 10 h10 m92 0 h10 m40 -32 h10 m0 0 h96 m-126 0 h20 m106 0 h20 m-146 0 q10 0 10 10 m126 0 q0 -10 10 -10 m-136 10 v12 m126 0 v-12 m-126 12 q0 10 10 10 m106 0 q10 0 10 -10 m-116 10 h10 m86 0 h10 m20 -32 h10 m96 0 h10 m3 0 h-3"/>
   <polygon points="855 17 863 13 863 21"/>
   <polygon points="855 17 847 13 847 21"/>
</svg>
