<?xml version="1.0" encoding="UTF-8"?>
<svg xmlns="http://www.w3.org/2000/svg" width="887" height="85">
   <defs>
      <style type="text/css">
    @namespace "http://www.w3.org/2000/svg";
    .line                 {fill: none; stroke: #332900; stroke-width: 1;}
    .bold-line            {stroke: #141000; shape-rendering: crispEdges; stroke-width: 2;}
    .thin-line            {stroke: #1F1800; shape-rendering: crispEdges}
    .filled               {fill: #332900; stroke: none;}
    text.terminal         {font-family: Verdana, Sans-serif;
                            font-size: 12px;
                            fill: #141000;
                            font-weight: bold;
                          }
    text.nonterminal      {font-family: Verdana, Sans-serif;
                            font-size: 12px;
                            fill: #1A1400;
                            font-weight: normal;
                          }
    text.regexp           {font-family: Verdana, Sans-serif;
                            font-size: 12px;
                            fill: #1F1800;
                            font-weight: normal;
                          }
    rect, circle, polygon {fill: #332900; stroke: #332900;}
    rect.terminal         {fill: #FFDB4D; stroke: #332900; stroke-width: 1;}
    rect.nonterminal      {fill: #FFEC9E; stroke: #332900; stroke-width: 1;}
    rect.text             {fill: none; stroke: none;}
    polygon.regexp        {fill: #FFF4C7; stroke: #332900; stroke-width: 1;}
  </style>
   </defs>
   <polygon points="9 33 1 29 1 37"/>
   <polygon points="17 33 9 29 9 37"/>
   <rect x="31" y="19" width="48" height="32" rx="10"/>
   <rect x="29"
         y="17"
         width="48"
         height="32"
         class="terminal"
         rx="10"/>
   <text class="terminal" x="39" y="37">impl</text>
   <a xmlns:xlink="http://www.w3.org/1999/xlink"
      xlink:href="#TypeExpr"
      xlink:title="TypeExpr">
      <rect x="99" y="19" width="78" height="32"/>
      <rect x="97" y="17" width="78" height="32" class="nonterminal"/>
      <text class="nonterminal" x="107" y="37">TypeExpr</text>
   </a>
   <rect x="217" y="51" width="38" height="32" rx="10"/>
   <rect x="215"
         y="49"
         width="38"
         height="32"
         class="terminal"
         rx="10"/>
   <text class="terminal" x="225" y="69">for</text>
   <a xmlns:xlink="http://www.w3.org/1999/xlink"
      xlink:href="#TypeExpr"
      xlink:title="TypeExpr">
      <rect x="275" y="51" width="78" height="32"/>
      <rect x="273" y="49" width="78" height="32" class="nonterminal"/>
      <text class="nonterminal" x="283" y="69">TypeExpr</text>
   </a>
   <rect x="393" y="19" width="24" height="32" rx="10"/>
   <rect x="391"
         y="17"
         width="24"
         height="32"
         class="terminal"
         rx="10"/>
   <text class="terminal" x="401" y="37">:</text>
   <a xmlns:xlink="http://www.w3.org/1999/xlink"
      xlink:href="#NEWLINE"
      xlink:title="NEWLINE">
      <rect x="437" y="19" width="78" height="32"/>
      <rect x="435" y="17" width="78" height="32" class="nonterminal"/>
      <text class="nonterminal" x="445" y="37">NEWLINE</text>
   </a>
   <rect x="535" y="19" width="72" height="32" rx="10"/>
   <rect x="533"
         y="17"
         width="72"
         height="32"
         class="terminal"
         rx="10"/>
   <text class="terminal" x="543" y="37">INDENT</text>
   <a xmlns:xlink="http://www.w3.org/1999/xlink"
      xlink:href="#ImplMember"
      xlink:title="ImplMember">
      <rect x="647" y="19" width="98" height="32"/>
      <rect x="645" y="17" width="98" height="32" class="nonterminal"/>
      <text class="nonterminal" x="655" y="37">ImplMember</text>
   </a>
   <rect x="785" y="19" width="74" height="32" rx="10"/>
   <rect x="783"
         y="17"
         width="74"
         height="32"
         class="terminal"
         rx="10"/>
   <text class="terminal" x="793" y="37">DEDENT</text>
   <path class="line"
         d="m17 33 h2 m0 0 h10 m48 0 h10 m0 0 h10 m78 0 h10 m20 0 h10 m0 0 h146 m-176 0 h20 m156 0 h20 m-196 0 q10 0 10 10 m176 0 q0 -10 10 -10 m-186 10 v12 m176 0 v-12 m-176 12 q0 10 10 10 m156 0 q10 0 10 -10 m-166 10 h10 m38 0 h10 m0 0 h10 m78 0 h10 m20 -32 h10 m24 0 h10 m0 0 h10 m78 0 h10 m0 0 h10 m72 0 h10 m20 0 h10 m98 0 h10 m-138 0 l20 0 m-1 0 q-9 0 -9 -10 l0 -12 q0 -10 10 -10 m118 32 l20 0 m-20 0 q10 0 10 -10 l0 -12 q0 -10 -10 -10 m-118 0 h10 m0 0 h108 m20 32 h10 m74 0 h10 m3 0 h-3"/>
   <polygon points="877 33 885 29 885 37"/>
   <polygon points="877 33 869 29 869 37"/>
</svg>
