<?xml version="1.0" encoding="UTF-8"?>
<svg xmlns="http://www.w3.org/2000/svg" width="365" height="113">
   <defs>
      <style type="text/css">
    @namespace "http://www.w3.org/2000/svg";
    .line                 {fill: none; stroke: #332900; stroke-width: 1;}
    .bold-line            {stroke: #141000; shape-rendering: crispEdges; stroke-width: 2;}
    .thin-line            {stroke: #1F1800; shape-rendering: crispEdges}
    .filled               {fill: #332900; stroke: none;}
    text.terminal         {font-family: Verdana, Sans-serif;
                            font-size: 12px;
                            fill: #141000;
                            font-weight: bold;
                          }
    text.nonterminal      {font-family: Verdana, Sans-serif;
                            font-size: 12px;
                            fill: #1A1400;
                            font-weight: normal;
                          }
    text.regexp           {font-family: Verdana, Sans-serif;
                            font-size: 12px;
                            fill: #1F1800;
                            font-weight: normal;
                          }
    rect, circle, polygon {fill: #332900; stroke: #332900;}
    rect.terminal         {fill: #FFDB4D; stroke: #332900; stroke-width: 1;}
    rect.nonterminal      {fill: #FFEC9E; stroke: #332900; stroke-width: 1;}
    rect.text             {fill: none; stroke: none;}
    polygon.regexp        {fill: #FFF4C7; stroke: #332900; stroke-width: 1;}
  </style>
   </defs>
   <polygon points="9 17 1 13 1 21"/>
   <polygon points="17 17 9 13 9 21"/>
   <a xmlns:xlink="http://www.w3.org/1999/xlink"
      xlink:href="#Identifier"
      xlink:title="Identifier">
      <rect x="51" y="3" width="78" height="32"/>
      <rect x="49" y="1" width="78" height="32" class="nonterminal"/>
      <text class="nonterminal" x="59" y="21">Identifier</text>
   </a>
   <rect x="51" y="47" width="26" height="32" rx="10"/>
   <rect x="49"
         y="45"
         width="26"
         height="32"
         class="terminal"
         rx="10"/>
   <text class="terminal" x="59" y="65">(</text>
   <a xmlns:xlink="http://www.w3.org/1999/xlink"
      xlink:href="#LambdaParamList"
      xlink:title="LambdaParamList">
      <rect x="117" y="79" width="134" height="32"/>
      <rect x="115" y="77" width="134" height="32" class="nonterminal"/>
      <text class="nonterminal" x="125" y="97">LambdaParamList</text>
   </a>
   <rect x="291" y="47" width="26" height="32" rx="10"/>
   <rect x="289"
         y="45"
         width="26"
         height="32"
         class="terminal"
         rx="10"/>
   <text class="terminal" x="299" y="65">)</text>
   <path class="line"
         d="m17 17 h2 m20 0 h10 m78 0 h10 m0 0 h188 m-306 0 h20 m286 0 h20 m-326 0 q10 0 10 10 m306 0 q0 -10 10 -10 m-316 10 v24 m306 0 v-24 m-306 24 q0 10 10 10 m286 0 q10 0 10 -10 m-296 10 h10 m26 0 h10 m20 0 h10 m0 0 h144 m-174 0 h20 m154 0 h20 m-194 0 q10 0 10 10 m174 0 q0 -10 10 -10 m-184 10 v12 m174 0 v-12 m-174 12 q0 10 10 10 m154 0 q10 0 10 -10 m-164 10 h10 m134 0 h10 m20 -32 h10 m26 0 h10 m23 -44 h-3"/>
   <polygon points="355 17 363 13 363 21"/>
   <polygon points="355 17 347 13 347 21"/>
</svg>
