<?xml version="1.0" encoding="UTF-8"?>
<svg xmlns="http://www.w3.org/2000/svg" width="623" height="69">
   <defs>
      <style type="text/css">
    @namespace "http://www.w3.org/2000/svg";
    .line                 {fill: none; stroke: #332900; stroke-width: 1;}
    .bold-line            {stroke: #141000; shape-rendering: crispEdges; stroke-width: 2;}
    .thin-line            {stroke: #1F1800; shape-rendering: crispEdges}
    .filled               {fill: #332900; stroke: none;}
    text.terminal         {font-family: Verdana, Sans-serif;
                            font-size: 12px;
                            fill: #141000;
                            font-weight: bold;
                          }
    text.nonterminal      {font-family: Verdana, Sans-serif;
                            font-size: 12px;
                            fill: #1A1400;
                            font-weight: normal;
                          }
    text.regexp           {font-family: Verdana, Sans-serif;
                            font-size: 12px;
                            fill: #1F1800;
                            font-weight: normal;
                          }
    rect, circle, polygon {fill: #332900; stroke: #332900;}
    rect.terminal         {fill: #FFDB4D; stroke: #332900; stroke-width: 1;}
    rect.nonterminal      {fill: #FFEC9E; stroke: #332900; stroke-width: 1;}
    rect.text             {fill: none; stroke: none;}
    polygon.regexp        {fill: #FFF4C7; stroke: #332900; stroke-width: 1;}
  </style>
   </defs>
   <polygon points="9 17 1 13 1 21"/>
   <polygon points="17 17 9 13 9 21"/>
   <rect x="51" y="35" width="46" height="32" rx="10"/>
   <rect x="49"
         y="33"
         width="46"
         height="32"
         class="terminal"
         rx="10"/>
   <text class="terminal" x="59" y="53">mut</text>
   <a xmlns:xlink="http://www.w3.org/1999/xlink"
      xlink:href="#BindingPattern"
      xlink:title="BindingPattern">
      <rect x="137" y="3" width="114" height="32"/>
      <rect x="135" y="1" width="114" height="32" class="nonterminal"/>
      <text class="nonterminal" x="145" y="21">BindingPattern</text>
   </a>
   <a xmlns:xlink="http://www.w3.org/1999/xlink"
      xlink:href="#TypeAnnotation"
      xlink:title="TypeAnnotation">
      <rect x="291" y="35" width="120" height="32"/>
      <rect x="289" y="33" width="120" height="32" class="nonterminal"/>
      <text class="nonterminal" x="299" y="53">TypeAnnotation</text>
   </a>
   <rect x="451" y="3" width="34" height="32" rx="10"/>
   <rect x="449"
         y="1"
         width="34"
         height="32"
         class="terminal"
         rx="10"/>
   <text class="terminal" x="459" y="21">:=</text>
   <a xmlns:xlink="http://www.w3.org/1999/xlink"
      xlink:href="#Expression"
      xlink:title="Expression">
      <rect x="505" y="3" width="90" height="32"/>
      <rect x="503" y="1" width="90" height="32" class="nonterminal"/>
      <text class="nonterminal" x="513" y="21">Expression</text>
   </a>
   <path class="line"
         d="m17 17 h2 m20 0 h10 m0 0 h56 m-86 0 h20 m66 0 h20 m-106 0 q10 0 10 10 m86 0 q0 -10 10 -10 m-96 10 v12 m86 0 v-12 m-86 12 q0 10 10 10 m66 0 q10 0 10 -10 m-76 10 h10 m46 0 h10 m20 -32 h10 m114 0 h10 m20 0 h10 m0 0 h130 m-160 0 h20 m140 0 h20 m-180 0 q10 0 10 10 m160 0 q0 -10 10 -10 m-170 10 v12 m160 0 v-12 m-160 12 q0 10 10 10 m140 0 q10 0 10 -10 m-150 10 h10 m120 0 h10 m20 -32 h10 m34 0 h10 m0 0 h10 m90 0 h10 m3 0 h-3"/>
   <polygon points="613 17 621 13 621 21"/>
   <polygon points="613 17 605 13 605 21"/>
</svg>
