<?xml version="1.0" encoding="UTF-8"?>
<svg xmlns="http://www.w3.org/2000/svg" width="701" height="53">
   <defs>
      <style type="text/css">
    @namespace "http://www.w3.org/2000/svg";
    .line                 {fill: none; stroke: #332900; stroke-width: 1;}
    .bold-line            {stroke: #141000; shape-rendering: crispEdges; stroke-width: 2;}
    .thin-line            {stroke: #1F1800; shape-rendering: crispEdges}
    .filled               {fill: #332900; stroke: none;}
    text.terminal         {font-family: Verdana, Sans-serif;
                            font-size: 12px;
                            fill: #141000;
                            font-weight: bold;
                          }
    text.nonterminal      {font-family: Verdana, Sans-serif;
                            font-size: 12px;
                            fill: #1A1400;
                            font-weight: normal;
                          }
    text.regexp           {font-family: Verdana, Sans-serif;
                            font-size: 12px;
                            fill: #1F1800;
                            font-weight: normal;
                          }
    rect, circle, polygon {fill: #332900; stroke: #332900;}
    rect.terminal         {fill: #FFDB4D; stroke: #332900; stroke-width: 1;}
    rect.nonterminal      {fill: #FFEC9E; stroke: #332900; stroke-width: 1;}
    rect.text             {fill: none; stroke: none;}
    polygon.regexp        {fill: #FFF4C7; stroke: #332900; stroke-width: 1;}
  </style>
   </defs>
   <polygon points="9 33 1 29 1 37"/>
   <polygon points="17 33 9 29 9 37"/>
   <rect x="31" y="19" width="62" height="32" rx="10"/>
   <rect x="29"
         y="17"
         width="62"
         height="32"
         class="terminal"
         rx="10"/>
   <text class="terminal" x="39" y="37">match</text>
   <a xmlns:xlink="http://www.w3.org/1999/xlink"
      xlink:href="#Expression"
      xlink:title="Expression">
      <rect x="113" y="19" width="90" height="32"/>
      <rect x="111" y="17" width="90" height="32" class="nonterminal"/>
      <text class="nonterminal" x="121" y="37">Expression</text>
   </a>
   <rect x="223" y="19" width="24" height="32" rx="10"/>
   <rect x="221"
         y="17"
         width="24"
         height="32"
         class="terminal"
         rx="10"/>
   <text class="terminal" x="231" y="37">:</text>
   <a xmlns:xlink="http://www.w3.org/1999/xlink"
      xlink:href="#NEWLINE"
      xlink:title="NEWLINE">
      <rect x="267" y="19" width="78" height="32"/>
      <rect x="265" y="17" width="78" height="32" class="nonterminal"/>
      <text class="nonterminal" x="275" y="37">NEWLINE</text>
   </a>
   <rect x="365" y="19" width="72" height="32" rx="10"/>
   <rect x="363"
         y="17"
         width="72"
         height="32"
         class="terminal"
         rx="10"/>
   <text class="terminal" x="373" y="37">INDENT</text>
   <a xmlns:xlink="http://www.w3.org/1999/xlink"
      xlink:href="#MatchArm"
      xlink:title="MatchArm">
      <rect x="477" y="19" width="82" height="32"/>
      <rect x="475" y="17" width="82" height="32" class="nonterminal"/>
      <text class="nonterminal" x="485" y="37">MatchArm</text>
   </a>
   <rect x="599" y="19" width="74" height="32" rx="10"/>
   <rect x="597"
         y="17"
         width="74"
         height="32"
         class="terminal"
         rx="10"/>
   <text class="terminal" x="607" y="37">DEDENT</text>
   <path class="line"
         d="m17 33 h2 m0 0 h10 m62 0 h10 m0 0 h10 m90 0 h10 m0 0 h10 m24 0 h10 m0 0 h10 m78 0 h10 m0 0 h10 m72 0 h10 m20 0 h10 m82 0 h10 m-122 0 l20 0 m-1 0 q-9 0 -9 -10 l0 -12 q0 -10 10 -10 m102 32 l20 0 m-20 0 q10 0 10 -10 l0 -12 q0 -10 -10 -10 m-102 0 h10 m0 0 h92 m20 32 h10 m74 0 h10 m3 0 h-3"/>
   <polygon points="691 33 699 29 699 37"/>
   <polygon points="691 33 683 29 683 37"/>
</svg>
