<?xml version="1.0" encoding="UTF-8"?>
<svg xmlns="http://www.w3.org/2000/svg" width="603" height="103">
   <defs>
      <style type="text/css">
    @namespace "http://www.w3.org/2000/svg";
    .line                 {fill: none; stroke: #332900; stroke-width: 1;}
    .bold-line            {stroke: #141000; shape-rendering: crispEdges; stroke-width: 2;}
    .thin-line            {stroke: #1F1800; shape-rendering: crispEdges}
    .filled               {fill: #332900; stroke: none;}
    text.terminal         {font-family: Verdana, Sans-serif;
                            font-size: 12px;
                            fill: #141000;
                            font-weight: bold;
                          }
    text.nonterminal      {font-family: Verdana, Sans-serif;
                            font-size: 12px;
                            fill: #1A1400;
                            font-weight: normal;
                          }
    text.regexp           {font-family: Verdana, Sans-serif;
                            font-size: 12px;
                            fill: #1F1800;
                            font-weight: normal;
                          }
    rect, circle, polygon {fill: #332900; stroke: #332900;}
    rect.terminal         {fill: #FFDB4D; stroke: #332900; stroke-width: 1;}
    rect.nonterminal      {fill: #FFEC9E; stroke: #332900; stroke-width: 1;}
    rect.text             {fill: none; stroke: none;}
    polygon.regexp        {fill: #FFF4C7; stroke: #332900; stroke-width: 1;}
  </style>
   </defs>
   <polygon points="9 51 1 47 1 55"/>
   <polygon points="17 51 9 47 9 55"/>
   <a xmlns:xlink="http://www.w3.org/1999/xlink"
      xlink:href="#Pattern"
      xlink:title="Pattern">
      <rect x="31" y="37" width="66" height="32"/>
      <rect x="29" y="35" width="66" height="32" class="nonterminal"/>
      <text class="nonterminal" x="39" y="55">Pattern</text>
   </a>
   <a xmlns:xlink="http://www.w3.org/1999/xlink"
      xlink:href="#GuardClause"
      xlink:title="GuardClause">
      <rect x="137" y="69" width="102" height="32"/>
      <rect x="135" y="67" width="102" height="32" class="nonterminal"/>
      <text class="nonterminal" x="145" y="87">GuardClause</text>
   </a>
   <rect x="279" y="37" width="24" height="32" rx="10"/>
   <rect x="277"
         y="35"
         width="24"
         height="32"
         class="terminal"
         rx="10"/>
   <text class="terminal" x="287" y="55">:</text>
   <a xmlns:xlink="http://www.w3.org/1999/xlink"
      xlink:href="#MatchArmBody"
      xlink:title="MatchArmBody">
      <rect x="323" y="37" width="114" height="32"/>
      <rect x="321" y="35" width="114" height="32" class="nonterminal"/>
      <text class="nonterminal" x="331" y="55">MatchArmBody</text>
   </a>
   <a xmlns:xlink="http://www.w3.org/1999/xlink"
      xlink:href="#NEWLINE"
      xlink:title="NEWLINE">
      <rect x="477" y="3" width="78" height="32"/>
      <rect x="475" y="1" width="78" height="32" class="nonterminal"/>
      <text class="nonterminal" x="485" y="21">NEWLINE</text>
   </a>
   <path class="line"
         d="m17 51 h2 m0 0 h10 m66 0 h10 m20 0 h10 m0 0 h112 m-142 0 h20 m122 0 h20 m-162 0 q10 0 10 10 m142 0 q0 -10 10 -10 m-152 10 v12 m142 0 v-12 m-142 12 q0 10 10 10 m122 0 q10 0 10 -10 m-132 10 h10 m102 0 h10 m20 -32 h10 m24 0 h10 m0 0 h10 m114 0 h10 m20 0 h10 m0 0 h88 m-118 0 l20 0 m-1 0 q-9 0 -9 -10 l0 -14 q0 -10 10 -10 m98 34 l20 0 m-20 0 q10 0 10 -10 l0 -14 q0 -10 -10 -10 m-98 0 h10 m78 0 h10 m23 34 h-3"/>
   <polygon points="593 51 601 47 601 55"/>
   <polygon points="593 51 585 47 585 55"/>
</svg>
