<?xml version="1.0" encoding="UTF-8"?>
<svg xmlns="http://www.w3.org/2000/svg" width="239" height="169">
   <defs>
      <style type="text/css">
    @namespace "http://www.w3.org/2000/svg";
    .line                 {fill: none; stroke: #332900; stroke-width: 1;}
    .bold-line            {stroke: #141000; shape-rendering: crispEdges; stroke-width: 2;}
    .thin-line            {stroke: #1F1800; shape-rendering: crispEdges}
    .filled               {fill: #332900; stroke: none;}
    text.terminal         {font-family: Verdana, Sans-serif;
                            font-size: 12px;
                            fill: #141000;
                            font-weight: bold;
                          }
    text.nonterminal      {font-family: Verdana, Sans-serif;
                            font-size: 12px;
                            fill: #1A1400;
                            font-weight: normal;
                          }
    text.regexp           {font-family: Verdana, Sans-serif;
                            font-size: 12px;
                            fill: #1F1800;
                            font-weight: normal;
                          }
    rect, circle, polygon {fill: #332900; stroke: #332900;}
    rect.terminal         {fill: #FFDB4D; stroke: #332900; stroke-width: 1;}
    rect.nonterminal      {fill: #FFEC9E; stroke: #332900; stroke-width: 1;}
    rect.text             {fill: none; stroke: none;}
    polygon.regexp        {fill: #FFF4C7; stroke: #332900; stroke-width: 1;}
  </style>
   </defs>
   <polygon points="9 17 1 13 1 21"/>
   <polygon points="17 17 9 13 9 21"/>
   <polygon points="51 19 58 3 110 3 117 19 110 35 58 35"/>
   <polygon points="49 17 56 1 108 1 115 17 108 33 56 33" class="regexp"/>
   <text class="regexp" x="64" y="21">[#x9]</text>
   <polygon points="51 63 58 47 110 47 117 63 110 79 58 79"/>
   <polygon points="49 61 56 45 108 45 115 61 108 77 56 77" class="regexp"/>
   <text class="regexp" x="64" y="65">[#xA]</text>
   <polygon points="51 107 58 91 110 91 117 107 110 123 58 123"/>
   <polygon points="49 105 56 89 108 89 115 105 108 121 56 121" class="regexp"/>
   <text class="regexp" x="64" y="109">[#xD]</text>
   <polygon points="51 151 58 135 184 135 191 151 184 167 58 167"/>
   <polygon points="49 149 56 133 182 133 189 149 182 165 56 165" class="regexp"/>
   <text class="regexp" x="64" y="153">[#x20-#x10FFFF]</text>
   <path class="line"
         d="m17 17 h2 m20 0 h10 m66 0 h10 m0 0 h74 m-180 0 h20 m160 0 h20 m-200 0 q10 0 10 10 m180 0 q0 -10 10 -10 m-190 10 v24 m180 0 v-24 m-180 24 q0 10 10 10 m160 0 q10 0 10 -10 m-170 10 h10 m66 0 h10 m0 0 h74 m-170 -10 v20 m180 0 v-20 m-180 20 v24 m180 0 v-24 m-180 24 q0 10 10 10 m160 0 q10 0 10 -10 m-170 10 h10 m66 0 h10 m0 0 h74 m-170 -10 v20 m180 0 v-20 m-180 20 v24 m180 0 v-24 m-180 24 q0 10 10 10 m160 0 q10 0 10 -10 m-170 10 h10 m140 0 h10 m23 -132 h-3"/>
   <polygon points="229 17 237 13 237 21"/>
   <polygon points="229 17 221 13 221 21"/>
</svg>
