<?xml version="1.0" encoding="UTF-8"?>
<svg xmlns="http://www.w3.org/2000/svg" width="517" height="145">
   <defs>
      <style type="text/css">
    @namespace "http://www.w3.org/2000/svg";
    .line                 {fill: none; stroke: #332900; stroke-width: 1;}
    .bold-line            {stroke: #141000; shape-rendering: crispEdges; stroke-width: 2;}
    .thin-line            {stroke: #1F1800; shape-rendering: crispEdges}
    .filled               {fill: #332900; stroke: none;}
    text.terminal         {font-family: Verdana, Sans-serif;
                            font-size: 12px;
                            fill: #141000;
                            font-weight: bold;
                          }
    text.nonterminal      {font-family: Verdana, Sans-serif;
                            font-size: 12px;
                            fill: #1A1400;
                            font-weight: normal;
                          }
    text.regexp           {font-family: Verdana, Sans-serif;
                            font-size: 12px;
                            fill: #1F1800;
                            font-weight: normal;
                          }
    rect, circle, polygon {fill: #332900; stroke: #332900;}
    rect.terminal         {fill: #FFDB4D; stroke: #332900; stroke-width: 1;}
    rect.nonterminal      {fill: #FFEC9E; stroke: #332900; stroke-width: 1;}
    rect.text             {fill: none; stroke: none;}
    polygon.regexp        {fill: #FFF4C7; stroke: #332900; stroke-width: 1;}
  </style>
   </defs>
   <polygon points="9 17 1 13 1 21"/>
   <polygon points="17 17 9 13 9 21"/>
   <rect x="71" y="35" width="46" height="32" rx="10"/>
   <rect x="69"
         y="33"
         width="46"
         height="32"
         class="terminal"
         rx="10"/>
   <text class="terminal" x="79" y="53">mut</text>
   <rect x="157" y="3" width="44" height="32" rx="10"/>
   <rect x="155"
         y="1"
         width="44"
         height="32"
         class="terminal"
         rx="10"/>
   <text class="terminal" x="165" y="21">self</text>
   <a xmlns:xlink="http://www.w3.org/1999/xlink"
      xlink:href="#Identifier"
      xlink:title="Identifier">
      <rect x="51" y="79" width="78" height="32"/>
      <rect x="49" y="77" width="78" height="32" class="nonterminal"/>
      <text class="nonterminal" x="59" y="97">Identifier</text>
   </a>
   <a xmlns:xlink="http://www.w3.org/1999/xlink"
      xlink:href="#TypeAnnotation"
      xlink:title="TypeAnnotation">
      <rect x="169" y="111" width="120" height="32"/>
      <rect x="167" y="109" width="120" height="32" class="nonterminal"/>
      <text class="nonterminal" x="177" y="129">TypeAnnotation</text>
   </a>
   <a xmlns:xlink="http://www.w3.org/1999/xlink"
      xlink:href="#DefaultValue"
      xlink:title="DefaultValue">
      <rect x="349" y="111" width="100" height="32"/>
      <rect x="347" y="109" width="100" height="32" class="nonterminal"/>
      <text class="nonterminal" x="357" y="129">DefaultValue</text>
   </a>
   <path class="line"
         d="m17 17 h2 m40 0 h10 m0 0 h56 m-86 0 h20 m66 0 h20 m-106 0 q10 0 10 10 m86 0 q0 -10 10 -10 m-96 10 v12 m86 0 v-12 m-86 12 q0 10 10 10 m66 0 q10 0 10 -10 m-76 10 h10 m46 0 h10 m20 -32 h10 m44 0 h10 m0 0 h268 m-458 0 h20 m438 0 h20 m-478 0 q10 0 10 10 m458 0 q0 -10 10 -10 m-468 10 v56 m458 0 v-56 m-458 56 q0 10 10 10 m438 0 q10 0 10 -10 m-448 10 h10 m78 0 h10 m20 0 h10 m0 0 h130 m-160 0 h20 m140 0 h20 m-180 0 q10 0 10 10 m160 0 q0 -10 10 -10 m-170 10 v12 m160 0 v-12 m-160 12 q0 10 10 10 m140 0 q10 0 10 -10 m-150 10 h10 m120 0 h10 m40 -32 h10 m0 0 h110 m-140 0 h20 m120 0 h20 m-160 0 q10 0 10 10 m140 0 q0 -10 10 -10 m-150 10 v12 m140 0 v-12 m-140 12 q0 10 10 10 m120 0 q10 0 10 -10 m-130 10 h10 m100 0 h10 m43 -108 h-3"/>
   <polygon points="507 17 515 13 515 21"/>
   <polygon points="507 17 499 13 499 21"/>
</svg>
