<?xml version="1.0" encoding="UTF-8"?>
<svg xmlns="http://www.w3.org/2000/svg" width="281" height="433">
   <defs>
      <style type="text/css">
    @namespace "http://www.w3.org/2000/svg";
    .line                 {fill: none; stroke: #332900; stroke-width: 1;}
    .bold-line            {stroke: #141000; shape-rendering: crispEdges; stroke-width: 2;}
    .thin-line            {stroke: #1F1800; shape-rendering: crispEdges}
    .filled               {fill: #332900; stroke: none;}
    text.terminal         {font-family: Verdana, Sans-serif;
                            font-size: 12px;
                            fill: #141000;
                            font-weight: bold;
                          }
    text.nonterminal      {font-family: Verdana, Sans-serif;
                            font-size: 12px;
                            fill: #1A1400;
                            font-weight: normal;
                          }
    text.regexp           {font-family: Verdana, Sans-serif;
                            font-size: 12px;
                            fill: #1F1800;
                            font-weight: normal;
                          }
    rect, circle, polygon {fill: #332900; stroke: #332900;}
    rect.terminal         {fill: #FFDB4D; stroke: #332900; stroke-width: 1;}
    rect.nonterminal      {fill: #FFEC9E; stroke: #332900; stroke-width: 1;}
    rect.text             {fill: none; stroke: none;}
    polygon.regexp        {fill: #FFF4C7; stroke: #332900; stroke-width: 1;}
  </style>
   </defs>
   <polygon points="9 17 1 13 1 21"/>
   <polygon points="17 17 9 13 9 21"/>
   <a xmlns:xlink="http://www.w3.org/1999/xlink"
      xlink:href="#Literal"
      xlink:title="Literal">
      <rect x="51" y="3" width="60" height="32"/>
      <rect x="49" y="1" width="60" height="32" class="nonterminal"/>
      <text class="nonterminal" x="59" y="21">Literal</text>
   </a>
   <a xmlns:xlink="http://www.w3.org/1999/xlink"
      xlink:href="#QualifiedName"
      xlink:title="QualifiedName">
      <rect x="51" y="47" width="112" height="32"/>
      <rect x="49" y="45" width="112" height="32" class="nonterminal"/>
      <text class="nonterminal" x="59" y="65">QualifiedName</text>
   </a>
   <rect x="51" y="91" width="26" height="32" rx="10"/>
   <rect x="49"
         y="89"
         width="26"
         height="32"
         class="terminal"
         rx="10"/>
   <text class="terminal" x="59" y="109">(</text>
   <a xmlns:xlink="http://www.w3.org/1999/xlink"
      xlink:href="#Expression"
      xlink:title="Expression">
      <rect x="97" y="91" width="90" height="32"/>
      <rect x="95" y="89" width="90" height="32" class="nonterminal"/>
      <text class="nonterminal" x="105" y="109">Expression</text>
   </a>
   <rect x="207" y="91" width="26" height="32" rx="10"/>
   <rect x="205"
         y="89"
         width="26"
         height="32"
         class="terminal"
         rx="10"/>
   <text class="terminal" x="215" y="109">)</text>
   <a xmlns:xlink="http://www.w3.org/1999/xlink"
      xlink:href="#TupleExpr"
      xlink:title="TupleExpr">
      <rect x="51" y="135" width="82" height="32"/>
      <rect x="49" y="133" width="82" height="32" class="nonterminal"/>
      <text class="nonterminal" x="59" y="153">TupleExpr</text>
   </a>
   <a xmlns:xlink="http://www.w3.org/1999/xlink"
      xlink:href="#ListExpr"
      xlink:title="ListExpr">
      <rect x="51" y="179" width="70" height="32"/>
      <rect x="49" y="177" width="70" height="32" class="nonterminal"/>
      <text class="nonterminal" x="59" y="197">ListExpr</text>
   </a>
   <a xmlns:xlink="http://www.w3.org/1999/xlink"
      xlink:href="#RecordExpr"
      xlink:title="RecordExpr">
      <rect x="51" y="223" width="92" height="32"/>
      <rect x="49" y="221" width="92" height="32" class="nonterminal"/>
      <text class="nonterminal" x="59" y="241">RecordExpr</text>
   </a>
   <a xmlns:xlink="http://www.w3.org/1999/xlink"
      xlink:href="#LambdaExpr"
      xlink:title="LambdaExpr">
      <rect x="51" y="267" width="98" height="32"/>
      <rect x="49" y="265" width="98" height="32" class="nonterminal"/>
      <text class="nonterminal" x="59" y="285">LambdaExpr</text>
   </a>
   <a xmlns:xlink="http://www.w3.org/1999/xlink"
      xlink:href="#IfExpr"
      xlink:title="IfExpr">
      <rect x="51" y="311" width="56" height="32"/>
      <rect x="49" y="309" width="56" height="32" class="nonterminal"/>
      <text class="nonterminal" x="59" y="329">IfExpr</text>
   </a>
   <a xmlns:xlink="http://www.w3.org/1999/xlink"
      xlink:href="#MatchExpr"
      xlink:title="MatchExpr">
      <rect x="51" y="355" width="86" height="32"/>
      <rect x="49" y="353" width="86" height="32" class="nonterminal"/>
      <text class="nonterminal" x="59" y="373">MatchExpr</text>
   </a>
   <a xmlns:xlink="http://www.w3.org/1999/xlink"
      xlink:href="#SpawnExpr"
      xlink:title="SpawnExpr">
      <rect x="51" y="399" width="90" height="32"/>
      <rect x="49" y="397" width="90" height="32" class="nonterminal"/>
      <text class="nonterminal" x="59" y="417">SpawnExpr</text>
   </a>
   <path class="line"
         d="m17 17 h2 m20 0 h10 m60 0 h10 m0 0 h122 m-222 0 h20 m202 0 h20 m-242 0 q10 0 10 10 m222 0 q0 -10 10 -10 m-232 10 v24 m222 0 v-24 m-222 24 q0 10 10 10 m202 0 q10 0 10 -10 m-212 10 h10 m112 0 h10 m0 0 h70 m-212 -10 v20 m222 0 v-20 m-222 20 v24 m222 0 v-24 m-222 24 q0 10 10 10 m202 0 q10 0 10 -10 m-212 10 h10 m26 0 h10 m0 0 h10 m90 0 h10 m0 0 h10 m26 0 h10 m-212 -10 v20 m222 0 v-20 m-222 20 v24 m222 0 v-24 m-222 24 q0 10 10 10 m202 0 q10 0 10 -10 m-212 10 h10 m82 0 h10 m0 0 h100 m-212 -10 v20 m222 0 v-20 m-222 20 v24 m222 0 v-24 m-222 24 q0 10 10 10 m202 0 q10 0 10 -10 m-212 10 h10 m70 0 h10 m0 0 h112 m-212 -10 v20 m222 0 v-20 m-222 20 v24 m222 0 v-24 m-222 24 q0 10 10 10 m202 0 q10 0 10 -10 m-212 10 h10 m92 0 h10 m0 0 h90 m-212 -10 v20 m222 0 v-20 m-222 20 v24 m222 0 v-24 m-222 24 q0 10 10 10 m202 0 q10 0 10 -10 m-212 10 h10 m98 0 h10 m0 0 h84 m-212 -10 v20 m222 0 v-20 m-222 20 v24 m222 0 v-24 m-222 24 q0 10 10 10 m202 0 q10 0 10 -10 m-212 10 h10 m56 0 h10 m0 0 h126 m-212 -10 v20 m222 0 v-20 m-222 20 v24 m222 0 v-24 m-222 24 q0 10 10 10 m202 0 q10 0 10 -10 m-212 10 h10 m86 0 h10 m0 0 h96 m-212 -10 v20 m222 0 v-20 m-222 20 v24 m222 0 v-24 m-222 24 q0 10 10 10 m202 0 q10 0 10 -10 m-212 10 h10 m90 0 h10 m0 0 h92 m23 -396 h-3"/>
   <polygon points="271 17 279 13 279 21"/>
   <polygon points="271 17 263 13 263 21"/>
</svg>
