<?xml version="1.0" encoding="UTF-8"?>
<svg xmlns="http://www.w3.org/2000/svg" width="329" height="555">
   <defs>
      <style type="text/css">
    @namespace "http://www.w3.org/2000/svg";
    .line                 {fill: none; stroke: #332900; stroke-width: 1;}
    .bold-line            {stroke: #141000; shape-rendering: crispEdges; stroke-width: 2;}
    .thin-line            {stroke: #1F1800; shape-rendering: crispEdges}
    .filled               {fill: #332900; stroke: none;}
    text.terminal         {font-family: Verdana, Sans-serif;
                            font-size: 12px;
                            fill: #141000;
                            font-weight: bold;
                          }
    text.nonterminal      {font-family: Verdana, Sans-serif;
                            font-size: 12px;
                            fill: #1A1400;
                            font-weight: normal;
                          }
    text.regexp           {font-family: Verdana, Sans-serif;
                            font-size: 12px;
                            fill: #1F1800;
                            font-weight: normal;
                          }
    rect, circle, polygon {fill: #332900; stroke: #332900;}
    rect.terminal         {fill: #FFDB4D; stroke: #332900; stroke-width: 1;}
    rect.nonterminal      {fill: #FFEC9E; stroke: #332900; stroke-width: 1;}
    rect.text             {fill: none; stroke: none;}
    polygon.regexp        {fill: #FFF4C7; stroke: #332900; stroke-width: 1;}
  </style>
   </defs>
   <polygon points="9 51 1 47 1 55"/>
   <polygon points="17 51 9 47 9 55"/>
   <a xmlns:xlink="http://www.w3.org/1999/xlink"
      xlink:href="#LetStmt"
      xlink:title="LetStmt">
      <rect x="51" y="37" width="70" height="32"/>
      <rect x="49" y="35" width="70" height="32" class="nonterminal"/>
      <text class="nonterminal" x="59" y="55">LetStmt</text>
   </a>
   <a xmlns:xlink="http://www.w3.org/1999/xlink"
      xlink:href="#AssignStmt"
      xlink:title="AssignStmt">
      <rect x="51" y="81" width="90" height="32"/>
      <rect x="49" y="79" width="90" height="32" class="nonterminal"/>
      <text class="nonterminal" x="59" y="99">AssignStmt</text>
   </a>
   <a xmlns:xlink="http://www.w3.org/1999/xlink"
      xlink:href="#ExprStmt"
      xlink:title="ExprStmt">
      <rect x="51" y="125" width="78" height="32"/>
      <rect x="49" y="123" width="78" height="32" class="nonterminal"/>
      <text class="nonterminal" x="59" y="143">ExprStmt</text>
   </a>
   <a xmlns:xlink="http://www.w3.org/1999/xlink"
      xlink:href="#ReturnStmt"
      xlink:title="ReturnStmt">
      <rect x="51" y="169" width="92" height="32"/>
      <rect x="49" y="167" width="92" height="32" class="nonterminal"/>
      <text class="nonterminal" x="59" y="187">ReturnStmt</text>
   </a>
   <rect x="51" y="213" width="58" height="32" rx="10"/>
   <rect x="49"
         y="211"
         width="58"
         height="32"
         class="terminal"
         rx="10"/>
   <text class="terminal" x="59" y="231">break</text>
   <rect x="51" y="257" width="78" height="32" rx="10"/>
   <rect x="49"
         y="255"
         width="78"
         height="32"
         class="terminal"
         rx="10"/>
   <text class="terminal" x="59" y="275">continue</text>
   <a xmlns:xlink="http://www.w3.org/1999/xlink"
      xlink:href="#IfStmt"
      xlink:title="IfStmt">
      <rect x="51" y="301" width="58" height="32"/>
      <rect x="49" y="299" width="58" height="32" class="nonterminal"/>
      <text class="nonterminal" x="59" y="319">IfStmt</text>
   </a>
   <a xmlns:xlink="http://www.w3.org/1999/xlink"
      xlink:href="#WhileStmt"
      xlink:title="WhileStmt">
      <rect x="51" y="345" width="84" height="32"/>
      <rect x="49" y="343" width="84" height="32" class="nonterminal"/>
      <text class="nonterminal" x="59" y="363">WhileStmt</text>
   </a>
   <a xmlns:xlink="http://www.w3.org/1999/xlink"
      xlink:href="#ForStmt"
      xlink:title="ForStmt">
      <rect x="51" y="389" width="70" height="32"/>
      <rect x="49" y="387" width="70" height="32" class="nonterminal"/>
      <text class="nonterminal" x="59" y="407">ForStmt</text>
   </a>
   <a xmlns:xlink="http://www.w3.org/1999/xlink"
      xlink:href="#MatchStmt"
      xlink:title="MatchStmt">
      <rect x="51" y="433" width="86" height="32"/>
      <rect x="49" y="431" width="86" height="32" class="nonterminal"/>
      <text class="nonterminal" x="59" y="451">MatchStmt</text>
   </a>
   <a xmlns:xlink="http://www.w3.org/1999/xlink"
      xlink:href="#DeferStmt"
      xlink:title="DeferStmt">
      <rect x="51" y="477" width="84" height="32"/>
      <rect x="49" y="475" width="84" height="32" class="nonterminal"/>
      <text class="nonterminal" x="59" y="495">DeferStmt</text>
   </a>
   <a xmlns:xlink="http://www.w3.org/1999/xlink"
      xlink:href="#FailStmt"
      xlink:title="FailStmt">
      <rect x="51" y="521" width="70" height="32"/>
      <rect x="49" y="519" width="70" height="32" class="nonterminal"/>
      <text class="nonterminal" x="59" y="539">FailStmt</text>
   </a>
   <a xmlns:xlink="http://www.w3.org/1999/xlink"
      xlink:href="#NEWLINE"
      xlink:title="NEWLINE">
      <rect x="203" y="3" width="78" height="32"/>
      <rect x="201" y="1" width="78" height="32" class="nonterminal"/>
      <text class="nonterminal" x="211" y="21">NEWLINE</text>
   </a>
   <path class="line"
         d="m17 51 h2 m20 0 h10 m70 0 h10 m0 0 h22 m-132 0 h20 m112 0 h20 m-152 0 q10 0 10 10 m132 0 q0 -10 10 -10 m-142 10 v24 m132 0 v-24 m-132 24 q0 10 10 10 m112 0 q10 0 10 -10 m-122 10 h10 m90 0 h10 m0 0 h2 m-122 -10 v20 m132 0 v-20 m-132 20 v24 m132 0 v-24 m-132 24 q0 10 10 10 m112 0 q10 0 10 -10 m-122 10 h10 m78 0 h10 m0 0 h14 m-122 -10 v20 m132 0 v-20 m-132 20 v24 m132 0 v-24 m-132 24 q0 10 10 10 m112 0 q10 0 10 -10 m-122 10 h10 m92 0 h10 m-122 -10 v20 m132 0 v-20 m-132 20 v24 m132 0 v-24 m-132 24 q0 10 10 10 m112 0 q10 0 10 -10 m-122 10 h10 m58 0 h10 m0 0 h34 m-122 -10 v20 m132 0 v-20 m-132 20 v24 m132 0 v-24 m-132 24 q0 10 10 10 m112 0 q10 0 10 -10 m-122 10 h10 m78 0 h10 m0 0 h14 m-122 -10 v20 m132 0 v-20 m-132 20 v24 m132 0 v-24 m-132 24 q0 10 10 10 m112 0 q10 0 10 -10 m-122 10 h10 m58 0 h10 m0 0 h34 m-122 -10 v20 m132 0 v-20 m-132 20 v24 m132 0 v-24 m-132 24 q0 10 10 10 m112 0 q10 0 10 -10 m-122 10 h10 m84 0 h10 m0 0 h8 m-122 -10 v20 m132 0 v-20 m-132 20 v24 m132 0 v-24 m-132 24 q0 10 10 10 m112 0 q10 0 10 -10 m-122 10 h10 m70 0 h10 m0 0 h22 m-122 -10 v20 m132 0 v-20 m-132 20 v24 m132 0 v-24 m-132 24 q0 10 10 10 m112 0 q10 0 10 -10 m-122 10 h10 m86 0 h10 m0 0 h6 m-122 -10 v20 m132 0 v-20 m-132 20 v24 m132 0 v-24 m-132 24 q0 10 10 10 m112 0 q10 0 10 -10 m-122 10 h10 m84 0 h10 m0 0 h8 m-122 -10 v20 m132 0 v-20 m-132 20 v24 m132 0 v-24 m-132 24 q0 10 10 10 m112 0 q10 0 10 -10 m-122 10 h10 m70 0 h10 m0 0 h22 m40 -484 h10 m0 0 h88 m-118 0 l20 0 m-1 0 q-9 0 -9 -10 l0 -14 q0 -10 10 -10 m98 34 l20 0 m-20 0 q10 0 10 -10 l0 -14 q0 -10 -10 -10 m-98 0 h10 m78 0 h10 m23 34 h-3"/>
   <polygon points="319 51 327 47 327 55"/>
   <polygon points="319 51 311 47 311 55"/>
</svg>
