<?xml version="1.0" encoding="UTF-8"?>
<svg xmlns="http://www.w3.org/2000/svg" width="309" height="389">
   <defs>
      <style type="text/css">
    @namespace "http://www.w3.org/2000/svg";
    .line                 {fill: none; stroke: #332900; stroke-width: 1;}
    .bold-line            {stroke: #141000; shape-rendering: crispEdges; stroke-width: 2;}
    .thin-line            {stroke: #1F1800; shape-rendering: crispEdges}
    .filled               {fill: #332900; stroke: none;}
    text.terminal         {font-family: Verdana, Sans-serif;
                            font-size: 12px;
                            fill: #141000;
                            font-weight: bold;
                          }
    text.nonterminal      {font-family: Verdana, Sans-serif;
                            font-size: 12px;
                            fill: #1A1400;
                            font-weight: normal;
                          }
    text.regexp           {font-family: Verdana, Sans-serif;
                            font-size: 12px;
                            fill: #1F1800;
                            font-weight: normal;
                          }
    rect, circle, polygon {fill: #332900; stroke: #332900;}
    rect.terminal         {fill: #FFDB4D; stroke: #332900; stroke-width: 1;}
    rect.nonterminal      {fill: #FFEC9E; stroke: #332900; stroke-width: 1;}
    rect.text             {fill: none; stroke: none;}
    polygon.regexp        {fill: #FFF4C7; stroke: #332900; stroke-width: 1;}
  </style>
   </defs>
   <polygon points="9 17 1 13 1 21"/>
   <polygon points="17 17 9 13 9 21"/>
   <rect x="51" y="35" width="44" height="32" rx="10"/>
   <rect x="49"
         y="33"
         width="44"
         height="32"
         class="terminal"
         rx="10"/>
   <text class="terminal" x="59" y="53">pub</text>
   <a xmlns:xlink="http://www.w3.org/1999/xlink"
      xlink:href="#FunctionDecl"
      xlink:title="FunctionDecl">
      <rect x="155" y="3" width="100" height="32"/>
      <rect x="153" y="1" width="100" height="32" class="nonterminal"/>
      <text class="nonterminal" x="163" y="21">FunctionDecl</text>
   </a>
   <a xmlns:xlink="http://www.w3.org/1999/xlink"
      xlink:href="#TypeAliasDecl"
      xlink:title="TypeAliasDecl">
      <rect x="155" y="47" width="106" height="32"/>
      <rect x="153" y="45" width="106" height="32" class="nonterminal"/>
      <text class="nonterminal" x="163" y="65">TypeAliasDecl</text>
   </a>
   <a xmlns:xlink="http://www.w3.org/1999/xlink"
      xlink:href="#TypeDecl"
      xlink:title="TypeDecl">
      <rect x="155" y="91" width="76" height="32"/>
      <rect x="153" y="89" width="76" height="32" class="nonterminal"/>
      <text class="nonterminal" x="163" y="109">TypeDecl</text>
   </a>
   <a xmlns:xlink="http://www.w3.org/1999/xlink"
      xlink:href="#TraitDecl"
      xlink:title="TraitDecl">
      <rect x="155" y="135" width="74" height="32"/>
      <rect x="153" y="133" width="74" height="32" class="nonterminal"/>
      <text class="nonterminal" x="163" y="153">TraitDecl</text>
   </a>
   <a xmlns:xlink="http://www.w3.org/1999/xlink"
      xlink:href="#ImplDecl"
      xlink:title="ImplDecl">
      <rect x="155" y="179" width="74" height="32"/>
      <rect x="153" y="177" width="74" height="32" class="nonterminal"/>
      <text class="nonterminal" x="163" y="197">ImplDecl</text>
   </a>
   <a xmlns:xlink="http://www.w3.org/1999/xlink"
      xlink:href="#ImportDecl"
      xlink:title="ImportDecl">
      <rect x="155" y="223" width="88" height="32"/>
      <rect x="153" y="221" width="88" height="32" class="nonterminal"/>
      <text class="nonterminal" x="163" y="241">ImportDecl</text>
   </a>
   <a xmlns:xlink="http://www.w3.org/1999/xlink"
      xlink:href="#ConstDecl"
      xlink:title="ConstDecl">
      <rect x="155" y="267" width="84" height="32"/>
      <rect x="153" y="265" width="84" height="32" class="nonterminal"/>
      <text class="nonterminal" x="163" y="285">ConstDecl</text>
   </a>
   <a xmlns:xlink="http://www.w3.org/1999/xlink"
      xlink:href="#LetDecl"
      xlink:title="LetDecl">
      <rect x="155" y="311" width="66" height="32"/>
      <rect x="153" y="309" width="66" height="32" class="nonterminal"/>
      <text class="nonterminal" x="163" y="329">LetDecl</text>
   </a>
   <a xmlns:xlink="http://www.w3.org/1999/xlink"
      xlink:href="#ExternDecl"
      xlink:title="ExternDecl">
      <rect x="155" y="355" width="88" height="32"/>
      <rect x="153" y="353" width="88" height="32" class="nonterminal"/>
      <text class="nonterminal" x="163" y="373">ExternDecl</text>
   </a>
   <path class="line"
         d="m17 17 h2 m20 0 h10 m0 0 h54 m-84 0 h20 m64 0 h20 m-104 0 q10 0 10 10 m84 0 q0 -10 10 -10 m-94 10 v12 m84 0 v-12 m-84 12 q0 10 10 10 m64 0 q10 0 10 -10 m-74 10 h10 m44 0 h10 m40 -32 h10 m100 0 h10 m0 0 h6 m-146 0 h20 m126 0 h20 m-166 0 q10 0 10 10 m146 0 q0 -10 10 -10 m-156 10 v24 m146 0 v-24 m-146 24 q0 10 10 10 m126 0 q10 0 10 -10 m-136 10 h10 m106 0 h10 m-136 -10 v20 m146 0 v-20 m-146 20 v24 m146 0 v-24 m-146 24 q0 10 10 10 m126 0 q10 0 10 -10 m-136 10 h10 m76 0 h10 m0 0 h30 m-136 -10 v20 m146 0 v-20 m-146 20 v24 m146 0 v-24 m-146 24 q0 10 10 10 m126 0 q10 0 10 -10 m-136 10 h10 m74 0 h10 m0 0 h32 m-136 -10 v20 m146 0 v-20 m-146 20 v24 m146 0 v-24 m-146 24 q0 10 10 10 m126 0 q10 0 10 -10 m-136 10 h10 m74 0 h10 m0 0 h32 m-136 -10 v20 m146 0 v-20 m-146 20 v24 m146 0 v-24 m-146 24 q0 10 10 10 m126 0 q10 0 10 -10 m-136 10 h10 m88 0 h10 m0 0 h18 m-136 -10 v20 m146 0 v-20 m-146 20 v24 m146 0 v-24 m-146 24 q0 10 10 10 m126 0 q10 0 10 -10 m-136 10 h10 m84 0 h10 m0 0 h22 m-136 -10 v20 m146 0 v-20 m-146 20 v24 m146 0 v-24 m-146 24 q0 10 10 10 m126 0 q10 0 10 -10 m-136 10 h10 m66 0 h10 m0 0 h40 m-136 -10 v20 m146 0 v-20 m-146 20 v24 m146 0 v-24 m-146 24 q0 10 10 10 m126 0 q10 0 10 -10 m-136 10 h10 m88 0 h10 m0 0 h18 m23 -352 h-3"/>
   <polygon points="299 17 307 13 307 21"/>
   <polygon points="299 17 291 13 291 21"/>
</svg>
