<?xml version="1.0" encoding="UTF-8"?>
<svg xmlns="http://www.w3.org/2000/svg" width="471" height="85">
   <defs>
      <style type="text/css">
    @namespace "http://www.w3.org/2000/svg";
    .line                 {fill: none; stroke: #332900; stroke-width: 1;}
    .bold-line            {stroke: #141000; shape-rendering: crispEdges; stroke-width: 2;}
    .thin-line            {stroke: #1F1800; shape-rendering: crispEdges}
    .filled               {fill: #332900; stroke: none;}
    text.terminal         {font-family: Verdana, Sans-serif;
                            font-size: 12px;
                            fill: #141000;
                            font-weight: bold;
                          }
    text.nonterminal      {font-family: Verdana, Sans-serif;
                            font-size: 12px;
                            fill: #1A1400;
                            font-weight: normal;
                          }
    text.regexp           {font-family: Verdana, Sans-serif;
                            font-size: 12px;
                            fill: #1F1800;
                            font-weight: normal;
                          }
    rect, circle, polygon {fill: #332900; stroke: #332900;}
    rect.terminal         {fill: #FFDB4D; stroke: #332900; stroke-width: 1;}
    rect.nonterminal      {fill: #FFEC9E; stroke: #332900; stroke-width: 1;}
    rect.text             {fill: none; stroke: none;}
    polygon.regexp        {fill: #FFF4C7; stroke: #332900; stroke-width: 1;}
  </style>
   </defs>
   <polygon points="9 33 1 29 1 37"/>
   <polygon points="17 33 9 29 9 37"/>
   <rect x="31" y="19" width="26" height="32" rx="10"/>
   <rect x="29"
         y="17"
         width="26"
         height="32"
         class="terminal"
         rx="10"/>
   <text class="terminal" x="39" y="37">(</text>
   <a xmlns:xlink="http://www.w3.org/1999/xlink"
      xlink:href="#Pattern"
      xlink:title="Pattern">
      <rect x="77" y="19" width="66" height="32"/>
      <rect x="75" y="17" width="66" height="32" class="nonterminal"/>
      <text class="nonterminal" x="85" y="37">Pattern</text>
   </a>
   <rect x="183" y="19" width="24" height="32" rx="10"/>
   <rect x="181"
         y="17"
         width="24"
         height="32"
         class="terminal"
         rx="10"/>
   <text class="terminal" x="191" y="37">,</text>
   <a xmlns:xlink="http://www.w3.org/1999/xlink"
      xlink:href="#Pattern"
      xlink:title="Pattern">
      <rect x="227" y="19" width="66" height="32"/>
      <rect x="225" y="17" width="66" height="32" class="nonterminal"/>
      <text class="nonterminal" x="235" y="37">Pattern</text>
   </a>
   <rect x="353" y="51" width="24" height="32" rx="10"/>
   <rect x="351"
         y="49"
         width="24"
         height="32"
         class="terminal"
         rx="10"/>
   <text class="terminal" x="361" y="69">,</text>
   <rect x="417" y="19" width="26" height="32" rx="10"/>
   <rect x="415"
         y="17"
         width="26"
         height="32"
         class="terminal"
         rx="10"/>
   <text class="terminal" x="425" y="37">)</text>
   <path class="line"
         d="m17 33 h2 m0 0 h10 m26 0 h10 m0 0 h10 m66 0 h10 m20 0 h10 m24 0 h10 m0 0 h10 m66 0 h10 m-150 0 l20 0 m-1 0 q-9 0 -9 -10 l0 -12 q0 -10 10 -10 m130 32 l20 0 m-20 0 q10 0 10 -10 l0 -12 q0 -10 -10 -10 m-130 0 h10 m0 0 h120 m40 32 h10 m0 0 h34 m-64 0 h20 m44 0 h20 m-84 0 q10 0 10 10 m64 0 q0 -10 10 -10 m-74 10 v12 m64 0 v-12 m-64 12 q0 10 10 10 m44 0 q10 0 10 -10 m-54 10 h10 m24 0 h10 m20 -32 h10 m26 0 h10 m3 0 h-3"/>
   <polygon points="461 33 469 29 469 37"/>
   <polygon points="461 33 453 29 453 37"/>
</svg>
