<?xml version="1.0" encoding="UTF-8"?>
<svg xmlns="http://www.w3.org/2000/svg" width="331" height="113">
   <defs>
      <style type="text/css">
    @namespace "http://www.w3.org/2000/svg";
    .line                 {fill: none; stroke: #332900; stroke-width: 1;}
    .bold-line            {stroke: #141000; shape-rendering: crispEdges; stroke-width: 2;}
    .thin-line            {stroke: #1F1800; shape-rendering: crispEdges}
    .filled               {fill: #332900; stroke: none;}
    text.terminal         {font-family: Verdana, Sans-serif;
                            font-size: 12px;
                            fill: #141000;
                            font-weight: bold;
                          }
    text.nonterminal      {font-family: Verdana, Sans-serif;
                            font-size: 12px;
                            fill: #1A1400;
                            font-weight: normal;
                          }
    text.regexp           {font-family: Verdana, Sans-serif;
                            font-size: 12px;
                            fill: #1F1800;
                            font-weight: normal;
                          }
    rect, circle, polygon {fill: #332900; stroke: #332900;}
    rect.terminal         {fill: #FFDB4D; stroke: #332900; stroke-width: 1;}
    rect.nonterminal      {fill: #FFEC9E; stroke: #332900; stroke-width: 1;}
    rect.text             {fill: none; stroke: none;}
    polygon.regexp        {fill: #FFF4C7; stroke: #332900; stroke-width: 1;}
  </style>
   </defs>
   <polygon points="9 17 1 13 1 21"/>
   <polygon points="17 17 9 13 9 21"/>
   <rect x="51" y="3" width="26" height="32" rx="10"/>
   <rect x="49"
         y="1"
         width="26"
         height="32"
         class="terminal"
         rx="10"/>
   <text class="terminal" x="59" y="21">(</text>
   <a xmlns:xlink="http://www.w3.org/1999/xlink"
      xlink:href="#TypeExprList"
      xlink:title="TypeExprList">
      <rect x="117" y="35" width="100" height="32"/>
      <rect x="115" y="33" width="100" height="32" class="nonterminal"/>
      <text class="nonterminal" x="125" y="53">TypeExprList</text>
   </a>
   <rect x="257" y="3" width="26" height="32" rx="10"/>
   <rect x="255"
         y="1"
         width="26"
         height="32"
         class="terminal"
         rx="10"/>
   <text class="terminal" x="265" y="21">)</text>
   <a xmlns:xlink="http://www.w3.org/1999/xlink"
      xlink:href="#RecordType"
      xlink:title="RecordType">
      <rect x="51" y="79" width="94" height="32"/>
      <rect x="49" y="77" width="94" height="32" class="nonterminal"/>
      <text class="nonterminal" x="59" y="97">RecordType</text>
   </a>
   <path class="line"
         d="m17 17 h2 m20 0 h10 m26 0 h10 m20 0 h10 m0 0 h110 m-140 0 h20 m120 0 h20 m-160 0 q10 0 10 10 m140 0 q0 -10 10 -10 m-150 10 v12 m140 0 v-12 m-140 12 q0 10 10 10 m120 0 q10 0 10 -10 m-130 10 h10 m100 0 h10 m20 -32 h10 m26 0 h10 m-272 0 h20 m252 0 h20 m-292 0 q10 0 10 10 m272 0 q0 -10 10 -10 m-282 10 v56 m272 0 v-56 m-272 56 q0 10 10 10 m252 0 q10 0 10 -10 m-262 10 h10 m94 0 h10 m0 0 h138 m23 -76 h-3"/>
   <polygon points="321 17 329 13 329 21"/>
   <polygon points="321 17 313 13 313 21"/>
</svg>
